<svg width="64" height="64" viewBox="0 0 64 64" xmlns="http://www.w3.org/2000/svg">
  <defs>
    <linearGradient id="outerGradient" x1="0%" y1="0%" x2="100%" y2="100%">
      <stop offset="0%" style="stop-color:#4C1D95;stop-opacity:1" />
      <stop offset="50%" style="stop-color:#A855F7;stop-opacity:1" />
      <stop offset="100%" style="stop-color:#7C3AED;stop-opacity:1" />
    </linearGradient>
    <linearGradient id="innerGradient" x1="0%" y1="0%" x2="100%" y2="100%">
      <stop offset="0%" style="stop-color:#0EA5E9;stop-opacity:1" />
      <stop offset="100%" style="stop-color:#06B6D4;stop-opacity:1" />
    </linearGradient>
  </defs>
  
  <!-- Outer ring with gradient -->
  <circle cx="32" cy="32" r="30" fill="url(#outerGradient)" stroke="none"/>
  
  <!-- Inner rings -->
  <circle cx="32" cy="32" r="26" fill="none" stroke="#0EA5E9" stroke-width="2"/>
  <circle cx="32" cy="32" r="22" fill="none" stroke="#06B6D4" stroke-width="2"/>
  
  <!-- Dashed segments at top -->
  <path d="M 6 32 A 26 26 0 0 1 32 6" fill="none" stroke="#0EA5E9" stroke-width="2" stroke-dasharray="4,4"/>
  <path d="M 10 32 A 22 22 0 0 1 32 10" fill="none" stroke="#06B6D4" stroke-width="2" stroke-dasharray="4,4"/>
  
  <!-- White inner circle -->
  <circle cx="32" cy="32" r="18" fill="white"/>
  
  <!-- Three stars -->
  <g fill="#0EA5E9">
    <polygon points="32,16 34,20 38,20 35,23 36,27 32,25 28,27 29,23 26,20 30,20" />
    <polygon points="24,18 26,22 30,22 27,25 28,29 24,27 20,29 21,25 18,22 22,22" />
    <polygon points="40,18 42,22 46,22 43,25 44,29 40,27 36,29 37,25 34,22 38,22" />
  </g>
  
  <!-- Central silhouette -->
  <path d="M 28 28 L 32 24 L 36 28 L 36 38 L 28 38 Z" fill="#1E40AF"/>
  
  <!-- Side silhouettes -->
  <path d="M 24 30 L 26 28 L 28 30 L 28 36 L 24 36 Z" fill="#1E40AF"/>
  <path d="M 36 30 L 38 28 L 40 30 L 40 36 L 36 36 Z" fill="#1E40AF"/>
  
  <!-- V-neck collar -->
  <path d="M 30 30 L 32 32 L 34 30 L 34 32 L 30 32 Z" fill="#1E40AF"/>
  
  <!-- Laurel wreath -->
  <path d="M 26 36 Q 32 40 38 36" fill="none" stroke="#0EA5E9" stroke-width="2"/>
  <path d="M 26 36 Q 29 38 32 36" fill="none" stroke="#0EA5E9" stroke-width="1"/>
  <path d="M 32 36 Q 35 38 38 36" fill="none" stroke="#0EA5E9" stroke-width="1"/>
</svg> 